<svg xmlns="http://www.w3.org/2000/svg" width="100" height="100" viewBox="0 0 100 100">
  <!-- Very subtle circuit traces -->
  <g fill="none" stroke="#1a2a2d" stroke-width="0.5" opacity="0.4">
    <!-- Horizontal traces -->
    <path d="M0 20 L30 20 L35 25 L60 25"/>
    <path d="M70 25 L100 25"/>
    <path d="M0 50 L20 50"/>
    <path d="M40 50 L55 50 L60 45 L100 45"/>
    <path d="M0 75 L45 75"/>
    <path d="M65 75 L75 75 L80 80 L100 80"/>

    <!-- Vertical traces -->
    <path d="M25 0 L25 15 L30 20"/>
    <path d="M25 30 L25 45 L20 50"/>
    <path d="M75 0 L75 20 L70 25"/>
    <path d="M50 55 L50 70 L45 75"/>
    <path d="M80 50 L80 75 L75 75"/>
    <path d="M50 80 L50 100"/>
  </g>

  <!-- Circuit nodes/vias - barely visible -->
  <g fill="#1a2a2d" opacity="0.3">
    <circle cx="30" cy="20" r="1.5"/>
    <circle cx="60" cy="25" r="1"/>
    <circle cx="70" cy="25" r="1"/>
    <circle cx="20" cy="50" r="1.5"/>
    <circle cx="40" cy="50" r="1"/>
    <circle cx="45" cy="75" r="1.5"/>
    <circle cx="65" cy="75" r="1"/>
    <circle cx="25" cy="15" r="1"/>
    <circle cx="75" cy="20" r="1"/>
    <circle cx="50" cy="70" r="1"/>
    <circle cx="80" cy="50" r="1"/>
  </g>
</svg>
